<svg aria-hidden="true" style="position: absolute; width: 0; height: 0; overflow: hidden;" version="1.1" xmlns="http://www.w3.org/2000/svg" xmlns:xlink="http://www.w3.org/1999/xlink">
  <defs>

    <symbol id="icon-gear" viewBox="0 0 32 32">
      <path d="M31.376 18.113l-3.887 0.977c-0.228 0.765-0.535 1.506-0.912 2.208l2.064 3.447c0.132 0.223 0.098 0.507-0.086 0.688l-2.665 2.677c-0.183 0.181-0.467 0.212-0.684 0.085l-3.439-2.070c-0.709 0.388-1.45 0.701-2.21 0.941l-0.962 3.874c-0.063 0.249-0.287 0.425-0.546 0.425l-3.771 0.002c-0.257 0-0.481-0.176-0.544-0.425l-0.965-3.874c-0.752-0.233-1.493-0.549-2.21-0.941l-3.435 2.067c-0.22 0.133-0.503 0.096-0.684-0.083l-2.668-2.678c-0.182-0.181-0.216-0.464-0.083-0.686l2.061-3.44c-0.383-0.712-0.691-1.453-0.919-2.215l-3.883-0.973c-0.249-0.062-0.426-0.29-0.426-0.545v-3.781c0-0.26 0.177-0.485 0.426-0.546l3.86-0.966c0.237-0.762 0.553-1.506 0.94-2.22l-2.062-3.446c-0.133-0.222-0.098-0.506 0.083-0.688l2.665-2.672c0.183-0.183 0.467-0.222 0.687-0.084l3.435 2.065c0.706-0.379 1.446-0.691 2.206-0.919l0.97-3.895c0.063-0.251 0.287-0.427 0.544-0.427h3.771c0.257 0 0.483 0.176 0.544 0.427l0.965 3.876c0.758 0.237 1.5 0.553 2.209 0.935l3.439-2.070c0.215-0.126 0.501-0.092 0.684 0.087l2.665 2.672c0.183 0.182 0.218 0.465 0.086 0.688l-2.062 3.449c0.379 0.707 0.687 1.449 0.915 2.206l3.887 0.977c0.251 0.061 0.426 0.288 0.426 0.546v3.778c0 0.257-0.176 0.484-0.426 0.544zM30.68 14.23l-3.778-0.949c-0.197-0.048-0.352-0.201-0.405-0.398-0.238-0.884-0.595-1.745-1.058-2.554-0.1-0.175-0.098-0.393 0.006-0.57l2.003-3.348-2.046-2.051-3.34 2.011c-0.173 0.105-0.389 0.11-0.569 0.005-0.815-0.471-1.674-0.836-2.558-1.086-0.194-0.053-0.343-0.208-0.391-0.404l-0.937-3.762h-2.893l-0.944 3.784c-0.048 0.197-0.201 0.354-0.397 0.406-0.886 0.242-1.744 0.599-2.551 1.063-0.175 0.105-0.391 0.102-0.568-0.005l-3.337-2.009-2.045 2.053 2.003 3.344c0.105 0.176 0.105 0.395 0.004 0.571-0.471 0.822-0.837 1.687-1.084 2.57-0.055 0.197-0.21 0.346-0.405 0.395l-3.746 0.939v2.9l3.773 0.948c0.197 0.049 0.352 0.202 0.405 0.399 0.24 0.887 0.595 1.746 1.061 2.556 0.101 0.177 0.1 0.396-0.006 0.571l-2.003 3.344 2.048 2.054 3.337-2.011c0.090-0.054 0.19-0.081 0.29-0.081 0.095 0 0.194 0.024 0.281 0.075 0.823 0.476 1.685 0.841 2.558 1.085 0.194 0.055 0.343 0.213 0.393 0.408l0.937 3.758 2.893-0.002 0.935-3.76c0.049-0.194 0.198-0.349 0.391-0.404 0.887-0.249 1.746-0.615 2.559-1.086 0.177-0.105 0.393-0.101 0.568 0.002l3.341 2.014 2.047-2.057-2.007-3.348c-0.106-0.176-0.106-0.396-0.006-0.573 0.463-0.802 0.817-1.659 1.058-2.552 0.053-0.196 0.208-0.348 0.405-0.397l3.778-0.95v-2.899zM16.165 20.025c-2.387 0-4.331-1.947-4.331-4.343 0-2.395 1.943-4.342 4.331-4.342 2.386 0 4.327 1.947 4.327 4.342 0 2.397-1.941 4.343-4.327 4.343zM16.165 12.465c-1.77 0-3.209 1.443-3.209 3.216s1.438 3.218 3.209 3.218c1.766 0 3.205-1.445 3.205-3.218s-1.438-3.216-3.205-3.216z"></path>
    </symbol>

    <symbol id="icon-pencil" viewBox="0 0 34 32">
      <path d="M33.432 11.004c-0.883-2.37-2.189-4.511-3.881-6.365-1.683-1.843-3.697-3.336-5.99-4.438-0.258-0.122-0.567-0.079-0.779 0.117l-16.428 14.994c-0.092 0.073-0.171 0.171-0.219 0.291-0.008 0.017-0.016 0.040-0.024 0.061l-5.65 14.675c-0.098 0.248-0.041 0.528 0.137 0.727 0.136 0.148 0.324 0.227 0.519 0.227 0.064 0 0.13-0.008 0.194-0.028l15.181-4.304c0.067-0.019 0.133-0.048 0.195-0.087 0.033-0.024 0.067-0.049 0.097-0.074l16.463-15.030c0.212-0.194 0.284-0.497 0.184-0.765zM3.183 27.177c0.028 0.019 0.061 0.029 0.089 0.044 0.301 0.189 0.582 0.398 0.814 0.656 0.232 0.255 0.416 0.552 0.577 0.867 0.019 0.029 0.026 0.064 0.039 0.095l-2.424 0.689 0.904-2.351zM15.955 25.65l-9.864 2.797c-0.028-0.061-0.077-0.107-0.107-0.166-0.227-0.494-0.501-0.96-0.858-1.352-0.36-0.392-0.799-0.704-1.272-0.977-0.059-0.035-0.094-0.087-0.153-0.118l3.682-9.559 1.103-1.001 0.891 0.973 7.675 8.4-1.097 1.003zM18.091 23.698l-2.228-2.439 11.706-10.68c0.151-0.141 0.227-0.331 0.227-0.524 0-0.166-0.059-0.337-0.184-0.472-0.261-0.286-0.707-0.305-0.994-0.045l-11.706 10.682-0.457-0.504-1.754-1.923 11.702-10.68c0.152-0.141 0.23-0.33 0.23-0.524 0-0.166-0.061-0.336-0.184-0.472-0.263-0.285-0.71-0.303-0.995-0.044l-11.704 10.683-2.224-2.437 13.849-12.642c1.953 1 3.682 2.311 5.137 3.912 1.465 1.602 2.615 3.439 3.432 5.465l-13.852 12.643z"></path>
    </symbol>

    <symbol id="icon-dimond" viewBox="0 0 40 32">
      <path d="M38.866 10.129c0-0.031-0.025-0.046-0.030-0.076-0.008-0.067 0.005-0.135-0.023-0.199l-3.994-9.403c-0.111-0.257-0.366-0.427-0.649-0.427h-29.477c-0.284 0-0.539 0.17-0.649 0.427l-3.997 9.403c-0.028 0.064-0.015 0.132-0.025 0.199-0.003 0.030-0.028 0.045-0.028 0.076 0 0.014 0.015 0.025 0.015 0.041 0.010 0.153 0.053 0.3 0.158 0.421l18.735 21.171c0.015 0.018 0.043 0.011 0.058 0.030 0.051 0.045 0.092 0.085 0.153 0.118 0.013 0.005 0.015 0.027 0.033 0.033 0.092 0.039 0.189 0.058 0.281 0.058 0.094 0 0.191-0.019 0.283-0.058 0.017-0.006 0.020-0.028 0.033-0.036 0.061-0.030 0.103-0.071 0.151-0.115 0.017-0.019 0.046-0.012 0.061-0.030l18.735-21.171c0.105-0.121 0.15-0.268 0.16-0.421 0-0.015 0.016-0.027 0.016-0.041zM24.209 1.425l3.445 8.006h-16.447l3.448-8.006h9.553zM27.644 10.829l-8.216 18.722-8.211-18.722h16.428zM9.681 10.829l7.302 16.651-14.732-16.651h7.43zM29.18 10.829h7.428l-14.733 16.648 7.305-16.648zM37.105 9.43h-7.922l-3.445-8.006h7.965l3.403 8.006zM5.158 1.425h7.971l-3.448 8.006h-7.925l3.403-8.006z"></path>
    </symbol>

    <symbol id="icon-car" viewBox="0 0 43 32">
      <path d="M42.623 16.122v10.028c0 0.419-0.345 0.756-0.767 0.756h-2.558c-0.422 0-0.763-0.337-0.763-0.756s0.341-0.757 0.763-0.757h1.794v-8.601h-6.91c-0.422 0-0.763-0.338-0.763-0.755v-9.421h-6.147v13.885c0 0.416-0.341 0.757-0.763 0.757s-0.767-0.341-0.767-0.757v-18.995h-24.205v23.887h1.822c0.422 0 0.766 0.338 0.766 0.757s-0.344 0.756-0.766 0.756h-2.586c-0.422 0-0.767-0.337-0.767-0.756v-25.398c0-0.418 0.345-0.755 0.767-0.755h25.736c0.422 0 0.763 0.337 0.763 0.755v4.351h14.584c0.422 0 0.767 0.34 0.767 0.758v10.087c0.002 0.035 0.036 0.053 0.036 0.088s-0.034 0.051-0.036 0.086zM41.092 6.615h-6.146v8.663h6.146v-8.663zM11.052 20.313c3.255 0 5.905 2.618 5.905 5.837 0 3.22-2.65 5.837-5.905 5.837-3.257 0-5.904-2.616-5.904-5.837 0-3.218 2.647-5.837 5.904-5.837zM11.052 30.475c2.411 0 4.375-1.94 4.375-4.325s-1.965-4.322-4.375-4.322c-2.414 0-4.377 1.937-4.377 4.322s1.964 4.325 4.377 4.325zM18.742 25.392h5.177c0.423 0 0.764 0.338 0.764 0.757s-0.341 0.756-0.764 0.756h-5.177c-0.422 0-0.763-0.337-0.763-0.756s0.341-0.757 0.763-0.757zM31.613 20.317c3.252 0 5.899 2.617 5.899 5.835 0 3.219-2.646 5.838-5.899 5.838-3.258 0-5.907-2.618-5.907-5.838 0-3.217 2.649-5.835 5.907-5.835zM31.613 30.477c2.408 0 4.369-1.939 4.369-4.325s-1.961-4.323-4.369-4.323c-2.414 0-4.377 1.938-4.377 4.323 0 2.385 1.964 4.325 4.377 4.325z"></path>
    </symbol>

    <symbol id="icon-google-plus" viewBox="0 0 32 32">
      <path d="M10.181 14.294v3.494h5.775c-0.231 1.5-1.744 4.394-5.775 4.394-3.475 0-6.313-2.881-6.313-6.431s2.838-6.431 6.313-6.431c1.981 0 3.3 0.844 4.056 1.569l2.762-2.662c-1.775-1.656-4.075-2.662-6.819-2.662-5.631 0.006-10.181 4.556-10.181 10.188s4.55 10.181 10.181 10.181c5.875 0 9.775-4.131 9.775-9.95 0-0.669-0.075-1.181-0.163-1.688h-9.613z"></path>
      <path d="M32 14h-3v-3h-3v3h-3v3h3v3h3v-3h3z"></path>
    </symbol>

    <symbol id="icon-facebook" viewBox="0 0 32 32">
      <path d="M19 6h5v-6h-5c-3.86 0-7 3.14-7 7v3h-4v6h4v16h6v-16h5l1-6h-6v-3c0-0.542 0.458-1 1-1z"></path>
    </symbol>

    <symbol id="icon-twitter" viewBox="0 0 32 32">
      <path d="M32 7.075c-1.175 0.525-2.444 0.875-3.769 1.031 1.356-0.813 2.394-2.1 2.887-3.631-1.269 0.75-2.675 1.3-4.169 1.594-1.2-1.275-2.906-2.069-4.794-2.069-3.625 0-6.563 2.938-6.563 6.563 0 0.512 0.056 1.012 0.169 1.494-5.456-0.275-10.294-2.888-13.531-6.862-0.563 0.969-0.887 2.1-0.887 3.3 0 2.275 1.156 4.287 2.919 5.463-1.075-0.031-2.087-0.331-2.975-0.819 0 0.025 0 0.056 0 0.081 0 3.181 2.263 5.838 5.269 6.437-0.55 0.15-1.131 0.231-1.731 0.231-0.425 0-0.831-0.044-1.237-0.119 0.838 2.606 3.263 4.506 6.131 4.563-2.25 1.762-5.075 2.813-8.156 2.813-0.531 0-1.050-0.031-1.569-0.094 2.913 1.869 6.362 2.95 10.069 2.95 12.075 0 18.681-10.006 18.681-18.681 0-0.287-0.006-0.569-0.019-0.85 1.281-0.919 2.394-2.075 3.275-3.394z"></path>
    </symbol>

    <symbol id="icon-linkedin2" viewBox="0 0 32 32">
      <path d="M12 12h5.535v2.837h0.079c0.77-1.381 2.655-2.837 5.464-2.837 5.842 0 6.922 3.637 6.922 8.367v9.633h-5.769v-8.54c0-2.037-0.042-4.657-3.001-4.657-3.005 0-3.463 2.218-3.463 4.509v8.688h-5.767v-18z"></path>
      <path d="M2 12h6v18h-6v-18z"></path>
      <path d="M8 7c0 1.657-1.343 3-3 3s-3-1.343-3-3c0-1.657 1.343-3 3-3s3 1.343 3 3z"></path>
    </symbol>

  </defs>
</svg>
